<?xml version="1.0" standalone="no"?>
<!DOCTYPE svg PUBLIC "-//W3C//DTD SVG 20010904//EN"
 "http://www.w3.org/TR/2001/REC-SVG-20010904/DTD/svg10.dtd">
<svg version="1.0" xmlns="http://www.w3.org/2000/svg"
 width="1109.000000pt" height="1109.000000pt" viewBox="0 0 1109.000000 1109.000000"
 preserveAspectRatio="xMidYMid meet">
<metadata>
Created by potrace 1.14, written by Peter Selinger 2001-2017
</metadata>
<g transform="translate(0.000000,1109.000000) scale(0.100000,-0.100000)"
fill="#000000" stroke="none">
<path d="M7107 11084 c-1 -1 -114 -5 -252 -8 -137 -4 -299 -9 -360 -11 -60 -2
-182 -7 -270 -10 -88 -3 -209 -7 -270 -10 -60 -2 -186 -7 -280 -10 -93 -4
-204 -8 -245 -10 -41 -2 -149 -6 -240 -10 -91 -3 -174 -9 -185 -12 -11 -3 -62
-25 -113 -49 -52 -24 -95 -44 -97 -44 -2 0 -41 -18 -87 -39 -46 -21 -112 -53
-148 -69 -78 -36 -235 -111 -385 -182 -60 -29 -119 -56 -130 -61 -11 -5 -27
-13 -35 -19 -8 -5 -76 -39 -150 -76 -339 -167 -497 -262 -578 -347 -60 -64
-74 -91 -147 -278 -31 -79 -60 -148 -65 -153 -7 -7 -129 31 -205 64 -124 54
-248 71 -351 50 -62 -13 -258 -73 -309 -95 -16 -7 -59 -25 -95 -38 -84 -33
-198 -81 -278 -118 -35 -16 -65 -29 -67 -29 -12 0 -386 -183 -510 -250 -292
-158 -405 -299 -406 -508 0 -90 15 -152 71 -292 165 -412 786 -1582 970 -1825
119 -158 237 -223 401 -223 91 0 147 10 274 51 302 96 886 367 1105 512 191
126 260 258 276 525 7 106 10 157 13 187 0 6 48 34 106 62 l105 51 151 -55
c231 -85 211 -72 243 -156 16 -41 46 -112 67 -157 22 -46 39 -88 39 -93 0 -5
4 -17 10 -27 5 -9 44 -89 86 -177 42 -88 82 -163 88 -167 6 -4 7 -8 3 -8 -12
0 88 -141 131 -185 20 -21 56 -50 79 -65 l43 -27 -30 -34 c-73 -84 -115 -209
-107 -318 6 -83 47 -211 147 -461 65 -163 228 -556 274 -665 8 -16 26 -59 40
-95 15 -36 31 -74 36 -85 5 -11 22 -50 39 -87 l29 -67 -44 -59 -43 -58 23 -65
c13 -35 26 -71 29 -79 3 -8 13 -37 23 -64 26 -72 88 -163 158 -231 70 -69 113
-105 124 -105 7 0 25 -32 55 -101 151 -349 165 -385 166 -439 1 -31 3 -71 6
-90 2 -19 7 -62 10 -95 24 -229 109 -460 247 -667 32 -48 58 -89 58 -90 0 -2
-44 -3 -98 -4 -92 -1 -230 -7 -424 -20 l-88 -6 -1 28 c0 16 -2 40 -5 54 -8 51
-67 285 -73 292 -4 4 -24 10 -46 13 -22 3 -53 7 -70 10 -16 2 -57 7 -89 11
-33 3 -67 8 -75 9 -9 2 -22 4 -30 4 -8 1 15 20 50 42 65 42 252 217 244 229
-3 5 -32 138 -51 235 -29 150 -115 495 -173 695 -52 181 -92 311 -101 335 -5
11 -27 74 -50 140 -68 194 -185 484 -240 593 -104 207 -204 274 -430 286 -547
32 -1541 22 -1920 -19 -19 -2 -69 -7 -110 -10 -142 -13 -264 -25 -310 -30 -19
-3 -62 -7 -95 -10 -55 -4 -81 -7 -185 -19 -19 -3 -60 -8 -90 -11 -30 -4 -66
-8 -80 -10 -14 -2 -49 -7 -79 -10 -30 -4 -63 -9 -75 -11 -12 -3 -39 -7 -61
-11 -55 -8 -148 -38 -182 -59 -51 -32 -114 -98 -138 -145 -61 -118 -312 -929
-445 -1434 -10 -38 -35 -128 -55 -199 -19 -71 -34 -130 -32 -132 7 -8 194 -3
496 11 46 2 81 1 78 -2 -4 -3 -49 -23 -101 -44 -157 -63 -319 -145 -357 -180
-20 -19 -48 -54 -62 -79 -64 -111 -159 -420 -172 -560 -4 -36 -8 -75 -10 -88
-16 -103 -23 -696 -11 -972 2 -47 7 -166 11 -265 9 -250 31 -327 118 -423 76
-83 209 -152 322 -167 30 -4 270 -13 550 -20 83 -2 247 -7 365 -10 739 -22
1707 -22 1900 0 19 2 71 7 115 11 44 3 83 8 86 10 5 3 62 7 294 19 104 6 942
21 1302 24 l111 1 6 28 c3 15 8 58 12 97 3 38 8 78 10 88 2 11 4 37 6 58 1 22
5 39 8 39 3 0 29 -24 56 -52 56 -59 208 -205 297 -286 46 -41 66 -52 95 -54
39 -1 50 -2 152 -12 94 -9 179 -15 310 -22 192 -10 247 -12 453 -13 l198 -1
61 -127 c33 -71 64 -137 69 -148 10 -21 71 -135 104 -195 11 -19 32 -48 47
-65 16 -16 28 -33 28 -38 0 -4 27 -27 61 -52 114 -84 265 -107 419 -64 75 20
189 62 222 80 10 5 25 9 33 9 8 0 15 4 15 9 0 5 12 12 27 16 15 3 59 21 97 39
39 18 105 48 146 67 103 46 698 344 840 420 264 141 457 261 538 333 124 112
173 303 121 471 -27 90 -63 169 -219 490 l-102 210 41 125 c79 242 84 333 25
456 -48 99 -115 156 -419 357 l-190 126 -49 98 c-28 54 -51 101 -53 104 -1 4
23 26 55 50 119 89 204 194 276 342 39 80 92 203 106 247 5 14 43 126 85 250
69 201 78 234 81 312 5 142 -34 224 -174 364 -67 66 -313 277 -467 399 -27 22
-52 42 -55 45 -3 3 -32 25 -65 50 -33 25 -64 48 -70 53 -119 92 -214 159 -457
324 l-167 113 -248 0 -248 0 -25 47 c-14 27 -69 129 -123 228 -55 99 -115 209
-134 245 -19 36 -43 79 -53 95 -9 17 -31 55 -47 85 -17 30 -40 71 -51 90 -12
19 -26 44 -31 56 -5 11 -48 85 -95 164 -47 79 -86 148 -86 152 0 4 -4 8 -8 8
-4 0 -15 12 -24 28 -55 90 -159 160 -280 188 -61 15 -187 12 -245 -5 -18 -5
-33 -9 -33 -8 0 1 6 25 14 52 27 104 11 230 -50 384 -30 77 -193 409 -258 528
l-46 82 122 153 c67 84 127 158 132 164 6 6 36 43 66 82 52 66 61 74 165 123
329 157 385 183 435 206 30 14 116 55 190 91 96 46 148 65 180 67 40 2 283
-31 450 -60 14 -3 39 -7 55 -9 17 -3 136 -23 265 -45 129 -22 253 -42 275 -45
22 -3 85 -12 140 -20 55 -9 127 -19 160 -22 33 -3 71 -7 85 -10 51 -9 227 -5
280 7 163 34 297 154 346 309 17 53 21 141 10 210 -10 65 -59 165 -121 245
-55 71 -304 321 -430 430 -37 33 -89 78 -113 100 -63 56 -78 69 -124 107 -23
18 -46 38 -52 43 -6 6 -36 30 -66 55 -30 25 -61 51 -68 58 -8 7 -30 25 -50 40
-21 15 -46 35 -57 45 -50 45 -297 226 -366 268 -85 51 -153 75 -249 88 -52 7
-865 12 -873 5z m-3527 -6889 c1 -11 -39 -21 -110 -29 -40 -4 -426 -68 -490
-81 -14 -2 -48 -9 -76 -15 -28 -6 -63 -13 -79 -16 -16 -3 -67 -14 -112 -25
-106 -24 -106 -24 -99 5 3 12 8 41 11 62 11 80 11 80 57 83 24 1 57 4 73 6 17
2 89 7 160 10 72 4 131 8 132 9 1 1 121 1 267 1 170 0 266 -4 266 -10z m133
-1768 c-1 -55 -4 -102 -7 -104 -7 -8 -717 -10 -721 -3 -2 4 1 7 8 7 7 1 170
55 362 120 403 138 362 140 358 -20z"/>
</g>
</svg>
